REM DIRINDEX 1\2\4\18,1\2\4\19,1\2\5\20,1\2\5\21,1\2\6\22,1\2\7\23,1\2\8\24,1\2\8\25,1\2\9\26,1\2\10\27,1\3\11\28,1\3\11\29,1\3\11\30,1\3\11\31,1\3\12\32,1\3\12\33,1\3\12\34,1\3\12\35,1\3\13\36,1\3\13\37,1\3\14\38,1\3\14\39,1\3\15\40,1\3\15\41,1\3\15\42,1\3\16\43,1\3\16\44,1\3\17\45,1\3\17\46
REM DIRNAME cjc024,folder01,folder02,folder03,folder04,folder05,folder06,folder07,folder08,folder09,folder10,folder11,folder12,folder13,folder14,folder15,folder16,folder17,folder18,folder19,folder20,folder21,folder22,folder23,folder24,folder25,folder26,folder27,folder28,folder29,folder30,folder31,folder32,folder33,folder34,folder35,folder36,folder37,folder38,folder39,folder40,folder41,folder42,folder43,folder44,folder45
TITLE ""
FILE "15.mp3" MP3
  TRACK 01 AUDIO
    TITLE "0:"
    INDEX 01 00:00:00
  TRACK 02 AUDIO
    TITLE "18:cjc024_2476"
    INDEX 01 00:00:13
  TRACK 03 AUDIO
    TITLE "0:"
    INDEX 01 00:01:34
  TRACK 04 AUDIO
    TITLE "19:cjc024_2477"
    INDEX 01 00:01:60
  TRACK 05 AUDIO
    TITLE "0:"
    INDEX 01 00:03:45
  TRACK 06 AUDIO
    TITLE "18:cjc024_2478"
    INDEX 01 00:04:42
  TRACK 07 AUDIO
    TITLE "0:"
    INDEX 01 00:05:48
  TRACK 08 AUDIO
    TITLE "19:cjc024_2479"
    INDEX 01 00:05:71
  TRACK 09 AUDIO
    TITLE "0:"
    INDEX 01 00:08:03
  TRACK 10 AUDIO
    TITLE "18:cjc024_2480"
    INDEX 01 00:09:02
  TRACK 11 AUDIO
    TITLE "0:"
    INDEX 01 00:10:14
  TRACK 12 AUDIO
    TITLE "19:cjc024_2481"
    INDEX 01 00:10:31
  TRACK 13 AUDIO
    TITLE "0:"
    INDEX 01 00:12:03
  TRACK 14 AUDIO
    TITLE "18:cjc024_2482"
    INDEX 01 00:13:04
  TRACK 15 AUDIO
    TITLE "0:"
    INDEX 01 00:14:11
  TRACK 16 AUDIO
    TITLE "19:cjc024_2483"
    INDEX 01 00:14:53
  TRACK 17 AUDIO
    TITLE "0:"
    INDEX 01 00:17:10
  TRACK 18 AUDIO
    TITLE "18:cjc024_2484"
    INDEX 01 00:18:09
  TRACK 19 AUDIO
    TITLE "0:"
    INDEX 01 00:19:24
  TRACK 20 AUDIO
    TITLE "19:cjc024_2485"
    INDEX 01 00:19:56
  TRACK 21 AUDIO
    TITLE "0:"
    INDEX 01 00:22:56
  TRACK 22 AUDIO
    TITLE "18:cjc024_2486"
    INDEX 01 00:23:55
  TRACK 23 AUDIO
    TITLE "0:"
    INDEX 01 00:24:67
  TRACK 24 AUDIO
    TITLE "19:cjc024_2487"
    INDEX 01 00:25:27
  TRACK 25 AUDIO
    TITLE "0:"
    INDEX 01 00:28:19
  TRACK 26 AUDIO
    TITLE "18:cjc024_2488"
    INDEX 01 00:29:19
  TRACK 27 AUDIO
    TITLE "0:"
    INDEX 01 00:30:34
  TRACK 28 AUDIO
    TITLE "19:cjc024_2489"
    INDEX 01 00:30:63
  TRACK 29 AUDIO
    TITLE "0:"
    INDEX 01 00:33:01
  TRACK 30 AUDIO
    TITLE "18:cjc024_2490"
    INDEX 01 00:34:02
  TRACK 31 AUDIO
    TITLE "0:"
    INDEX 01 00:35:06
  TRACK 32 AUDIO
    TITLE "19:cjc024_2491"
    INDEX 01 00:35:37
  TRACK 33 AUDIO
    TITLE "0:"
    INDEX 01 00:37:52
  TRACK 34 AUDIO
    TITLE "18:cjc024_2492"
    INDEX 01 00:38:55
  TRACK 35 AUDIO
    TITLE "0:"
    INDEX 01 00:39:47
  TRACK 36 AUDIO
    TITLE "19:cjc024_2493"
    INDEX 01 00:40:03
  TRACK 37 AUDIO
    TITLE "0:"
    INDEX 01 00:41:63
  TRACK 38 AUDIO
    TITLE "18:cjc024_2494"
    INDEX 01 00:42:63
  TRACK 39 AUDIO
    TITLE "0:"
    INDEX 01 00:43:72
  TRACK 40 AUDIO
    TITLE "19:cjc024_2495"
    INDEX 01 00:44:22
  TRACK 41 AUDIO
    TITLE "0:"
    INDEX 01 00:46:29
  TRACK 42 AUDIO
    TITLE "18:cjc024_2496"
    INDEX 01 00:47:30
  TRACK 43 AUDIO
    TITLE "0:"
    INDEX 01 00:48:36
  TRACK 44 AUDIO
    TITLE "19:cjc024_2497"
    INDEX 01 00:48:61
  TRACK 45 AUDIO
    TITLE "0:"
    INDEX 01 00:51:07
  TRACK 46 AUDIO
    TITLE "18:cjc024_2498"
    INDEX 01 00:52:08
  TRACK 47 AUDIO
    TITLE "0:"
    INDEX 01 00:53:31
  TRACK 48 AUDIO
    TITLE "19:cjc024_2499"
    INDEX 01 00:53:58
  TRACK 49 AUDIO
    TITLE "0:"
    INDEX 01 00:55:44
  TRACK 50 AUDIO
    TITLE "18:cjc024_2500"
    INDEX 01 00:56:43
  TRACK 51 AUDIO
    TITLE "0:"
    INDEX 01 00:57:50
  TRACK 52 AUDIO
    TITLE "19:cjc024_2501"
    INDEX 01 00:58:01
  TRACK 53 AUDIO
    TITLE "0:"
    INDEX 01 01:00:04
  TRACK 54 AUDIO
    TITLE "18:cjc024_2502"
    INDEX 01 01:01:05
  TRACK 55 AUDIO
    TITLE "0:"
    INDEX 01 01:02:08
  TRACK 56 AUDIO
    TITLE "19:cjc024_2503"
    INDEX 01 01:02:38
  TRACK 57 AUDIO
    TITLE "0:"
    INDEX 01 01:04:48
  TRACK 58 AUDIO
    TITLE "18:cjc024_2504"
    INDEX 01 01:05:50
  TRACK 59 AUDIO
    TITLE "0:"
    INDEX 01 01:06:53
  TRACK 60 AUDIO
    TITLE "19:cjc024_2505"
    INDEX 01 01:07:04
  TRACK 61 AUDIO
    TITLE "0:"
    INDEX 01 01:09:26
  TRACK 62 AUDIO
    TITLE "18:cjc024_2506"
    INDEX 01 01:10:26
  TRACK 63 AUDIO
    TITLE "0:"
    INDEX 01 01:11:43
  TRACK 64 AUDIO
    TITLE "19:cjc024_2507"
    INDEX 01 01:11:68
  TRACK 65 AUDIO
    TITLE "0:"
    INDEX 01 01:14:21
  TRACK 66 AUDIO
    TITLE "18:cjc024_2508"
    INDEX 01 01:15:23
  TRACK 67 AUDIO
    TITLE "0:"
    INDEX 01 01:16:46
  TRACK 68 AUDIO
    TITLE "19:cjc024_2509"
    INDEX 01 01:16:71
  TRACK 69 AUDIO
    TITLE "0:"
    INDEX 01 01:18:51
  TRACK 70 AUDIO
    TITLE "18:cjc024_2510"
    INDEX 01 01:19:50
  TRACK 71 AUDIO
    TITLE "0:"
    INDEX 01 01:20:61
  TRACK 72 AUDIO
    TITLE "19:cjc024_2511"
    INDEX 01 01:21:10
  TRACK 73 AUDIO
    TITLE "0:"
    INDEX 01 01:23:26
  TRACK 74 AUDIO
    TITLE "18:cjc024_2512"
    INDEX 01 01:24:28
  TRACK 75 AUDIO
    TITLE "0:"
    INDEX 01 01:25:33
  TRACK 76 AUDIO
    TITLE "19:cjc024_2513"
    INDEX 01 01:25:58
  TRACK 77 AUDIO
    TITLE "0:"
    INDEX 01 01:27:20
  TRACK 78 AUDIO
    TITLE "18:cjc024_2514"
    INDEX 01 01:28:22
  TRACK 79 AUDIO
    TITLE "0:"
    INDEX 01 01:29:39
  TRACK 80 AUDIO
    TITLE "19:cjc024_2515"
    INDEX 01 01:29:62
  TRACK 81 AUDIO
    TITLE "0:"
    INDEX 01 01:32:29
  TRACK 82 AUDIO
    TITLE "18:cjc024_2516"
    INDEX 01 01:33:27
  TRACK 83 AUDIO
    TITLE "0:"
    INDEX 01 01:34:36
  TRACK 84 AUDIO
    TITLE "19:cjc024_2517"
    INDEX 01 01:34:63
  TRACK 85 AUDIO
    TITLE "0:"
    INDEX 01 01:36:39
  TRACK 86 AUDIO
    TITLE "18:cjc024_2518"
    INDEX 01 01:37:44
  TRACK 87 AUDIO
    TITLE "0:"
    INDEX 01 01:38:49
  TRACK 88 AUDIO
    TITLE "19:cjc024_2519"
    INDEX 01 01:39:04
  TRACK 89 AUDIO
    TITLE "0:"
    INDEX 01 01:40:46
  TRACK 90 AUDIO
    TITLE "18:cjc024_2520"
    INDEX 01 01:41:46
  TRACK 91 AUDIO
    TITLE "0:"
    INDEX 01 01:42:51
  TRACK 92 AUDIO
    TITLE "19:cjc024_2521"
    INDEX 01 01:43:05
  TRACK 93 AUDIO
    TITLE "0:"
    INDEX 01 01:45:02
  TRACK 94 AUDIO
    TITLE "18:cjc024_2522"
    INDEX 01 01:46:02
  TRACK 95 AUDIO
    TITLE "0:"
    INDEX 01 01:46:70
  TRACK 96 AUDIO
    TITLE "19:cjc024_2523"
    INDEX 01 01:47:31
  TRACK 97 AUDIO
    TITLE "0:"
    INDEX 01 01:48:65
  TRACK 98 AUDIO
    TITLE "18:cjc024_2524"
    INDEX 01 01:49:67
  TRACK 99 AUDIO
    TITLE "0:"
    INDEX 01 01:50:68
  TRACK 100 AUDIO
    TITLE "19:cjc024_2525"
    INDEX 01 01:51:19
  TRACK 101 AUDIO
    TITLE "0:"
    INDEX 01 01:52:44
  TRACK 102 AUDIO
    TITLE "18:cjc024_2526"
    INDEX 01 01:53:47
  TRACK 103 AUDIO
    TITLE "0:"
    INDEX 01 01:54:64
  TRACK 104 AUDIO
    TITLE "19:cjc024_2527"
    INDEX 01 01:55:15
  TRACK 105 AUDIO
    TITLE "0:"
    INDEX 01 01:57:06
  TRACK 106 AUDIO
    TITLE "18:cjc024_2528"
    INDEX 01 01:58:05
  TRACK 107 AUDIO
    TITLE "0:"
    INDEX 01 01:59:18
  TRACK 108 AUDIO
    TITLE "19:cjc024_2529"
    INDEX 01 01:59:44
  TRACK 109 AUDIO
    TITLE "0:"
    INDEX 01 02:01:56
  TRACK 110 AUDIO
    TITLE "18:cjc024_2530"
    INDEX 01 02:02:58
  TRACK 111 AUDIO
    TITLE "0:"
    INDEX 01 02:04:02
  TRACK 112 AUDIO
    TITLE "19:cjc024_2531"
    INDEX 01 02:04:29
  TRACK 113 AUDIO
    TITLE "0:"
    INDEX 01 02:06:20
  TRACK 114 AUDIO
    TITLE "18:cjc024_2532"
    INDEX 01 02:07:18
  TRACK 115 AUDIO
    TITLE "0:"
    INDEX 01 02:08:31
  TRACK 116 AUDIO
    TITLE "19:cjc024_2533"
    INDEX 01 02:08:58
  TRACK 117 AUDIO
    TITLE "0:"
    INDEX 01 02:11:51
  TRACK 118 AUDIO
    TITLE "18:cjc024_2534"
    INDEX 01 02:12:58
  TRACK 119 AUDIO
    TITLE "0:"
    INDEX 01 02:13:65
  TRACK 120 AUDIO
    TITLE "19:cjc024_2535"
    INDEX 01 02:14:20
  TRACK 121 AUDIO
    TITLE "0:"
    INDEX 01 02:15:64
  TRACK 122 AUDIO
    TITLE "18:cjc024_2536"
    INDEX 01 02:16:66
  TRACK 123 AUDIO
    TITLE "0:"
    INDEX 01 02:17:71
  TRACK 124 AUDIO
    TITLE "19:cjc024_2537"
    INDEX 01 02:18:21
  TRACK 125 AUDIO
    TITLE "0:"
    INDEX 01 02:19:70
  TRACK 126 AUDIO
    TITLE "18:cjc024_2538"
    INDEX 01 02:20:71
  TRACK 127 AUDIO
    TITLE "0:"
    INDEX 01 02:22:06
  TRACK 128 AUDIO
    TITLE "19:cjc024_2539"
    INDEX 01 02:22:35
  TRACK 129 AUDIO
    TITLE "0:"
    INDEX 01 02:24:73
  TRACK 130 AUDIO
    TITLE "18:cjc024_2540"
    INDEX 01 02:25:72
  TRACK 131 AUDIO
    TITLE "0:"
    INDEX 01 02:27:13
  TRACK 132 AUDIO
    TITLE "19:cjc024_2541"
    INDEX 01 02:27:38
  TRACK 133 AUDIO
    TITLE "0:"
    INDEX 01 02:29:49
  TRACK 134 AUDIO
    TITLE "18:cjc024_2542"
    INDEX 01 02:30:48
  TRACK 135 AUDIO
    TITLE "0:"
    INDEX 01 02:31:63
  TRACK 136 AUDIO
    TITLE "19:cjc024_2543"
    INDEX 01 02:32:16
  TRACK 137 AUDIO
    TITLE "0:"
    INDEX 01 02:35:39
  TRACK 138 AUDIO
    TITLE "18:cjc024_2544"
    INDEX 01 02:36:41
  TRACK 139 AUDIO
    TITLE "0:"
    INDEX 01 02:37:60
  TRACK 140 AUDIO
    TITLE "19:cjc024_2545"
    INDEX 01 02:38:10
  TRACK 141 AUDIO
    TITLE "0:"
    INDEX 01 02:40:03
  TRACK 142 AUDIO
    TITLE "18:cjc024_2546"
    INDEX 01 02:41:03
  TRACK 143 AUDIO
    TITLE "0:"
    INDEX 01 02:42:32
  TRACK 144 AUDIO
    TITLE "19:cjc024_2547"
    INDEX 01 02:42:59
  TRACK 145 AUDIO
    TITLE "0:"
    INDEX 01 02:45:40
  TRACK 146 AUDIO
    TITLE "18:cjc024_2548"
    INDEX 01 02:46:41
  TRACK 147 AUDIO
    TITLE "0:"
    INDEX 01 02:47:51
  TRACK 148 AUDIO
    TITLE "19:cjc024_2549"
    INDEX 01 02:48:01
  TRACK 149 AUDIO
    TITLE "0:"
    INDEX 01 02:50:18
  TRACK 150 AUDIO
    TITLE "18:cjc024_2550"
    INDEX 01 02:51:15
  TRACK 151 AUDIO
    TITLE "0:"
    INDEX 01 02:52:34
  TRACK 152 AUDIO
    TITLE "19:cjc024_2551"
    INDEX 01 02:52:61
  TRACK 153 AUDIO
    TITLE "0:"
    INDEX 01 02:55:13
  TRACK 154 AUDIO
    TITLE "18:cjc024_2552"
    INDEX 01 02:56:12
  TRACK 155 AUDIO
    TITLE "0:"
    INDEX 01 02:57:21
  TRACK 156 AUDIO
    TITLE "19:cjc024_2553"
    INDEX 01 02:57:45
  TRACK 157 AUDIO
    TITLE "0:"
    INDEX 01 02:59:16
  TRACK 158 AUDIO
    TITLE "18:cjc024_2554"
    INDEX 01 03:00:16
  TRACK 159 AUDIO
    TITLE "0:"
    INDEX 01 03:01:33
  TRACK 160 AUDIO
    TITLE "19:cjc024_2555"
    INDEX 01 03:01:60
  TRACK 161 AUDIO
    TITLE "0:"
    INDEX 01 03:03:36
  TRACK 162 AUDIO
    TITLE "18:cjc024_2556"
    INDEX 01 03:04:33
  TRACK 163 AUDIO
    TITLE "0:"
    INDEX 01 03:05:64
  TRACK 164 AUDIO
    TITLE "19:cjc024_2557"
    INDEX 01 03:06:17
  TRACK 165 AUDIO
    TITLE "0:"
    INDEX 01 03:08:49
  TRACK 166 AUDIO
    TITLE "18:cjc024_2558"
    INDEX 01 03:09:50
  TRACK 167 AUDIO
    TITLE "0:"
    INDEX 01 03:10:57
  TRACK 168 AUDIO
    TITLE "19:cjc024_2559"
    INDEX 01 03:11:10
  TRACK 169 AUDIO
    TITLE "0:"
    INDEX 01 03:13:07
  TRACK 170 AUDIO
    TITLE "18:cjc024_2560"
    INDEX 01 03:14:04
  TRACK 171 AUDIO
    TITLE "0:"
    INDEX 01 03:15:14
  TRACK 172 AUDIO
    TITLE "19:cjc024_2561"
    INDEX 01 03:15:37
  TRACK 173 AUDIO
    TITLE "0:"
    INDEX 01 03:17:26
  TRACK 174 AUDIO
    TITLE "18:cjc024_2562"
    INDEX 01 03:18:26
  TRACK 175 AUDIO
    TITLE "0:"
    INDEX 01 03:19:19
  TRACK 176 AUDIO
    TITLE "19:cjc024_2563"
    INDEX 01 03:19:43
  TRACK 177 AUDIO
    TITLE "0:"
    INDEX 01 03:21:51
  TRACK 178 AUDIO
    TITLE "18:cjc024_2564"
    INDEX 01 03:22:57
  TRACK 179 AUDIO
    TITLE "0:"
    INDEX 01 03:24:18
  TRACK 180 AUDIO
    TITLE "19:cjc024_2565"
    INDEX 01 03:24:44
  TRACK 181 AUDIO
    TITLE "0:"
    INDEX 01 03:27:50
  TRACK 182 AUDIO
    TITLE "18:cjc024_2566"
    INDEX 01 03:28:49
  TRACK 183 AUDIO
    TITLE "0:"
    INDEX 01 03:29:59
  TRACK 184 AUDIO
    TITLE "19:cjc024_2567"
    INDEX 01 03:30:07
  TRACK 185 AUDIO
    TITLE "0:"
    INDEX 01 03:31:60
  TRACK 186 AUDIO
    TITLE "18:cjc024_2568"
    INDEX 01 03:32:61
  TRACK 187 AUDIO
    TITLE "0:"
    INDEX 01 03:34:01
  TRACK 188 AUDIO
    TITLE "19:cjc024_2569"
    INDEX 01 03:34:23
  TRACK 189 AUDIO
    TITLE "0:"
    INDEX 01 03:37:48
  TRACK 190 AUDIO
    TITLE "18:cjc024_2570"
    INDEX 01 03:38:50
  TRACK 191 AUDIO
    TITLE "0:"
    INDEX 01 03:39:67
  TRACK 192 AUDIO
    TITLE "19:cjc024_2571"
    INDEX 01 03:40:19
  TRACK 193 AUDIO
    TITLE "0:"
    INDEX 01 03:42:42
  TRACK 194 AUDIO
    TITLE "18:cjc024_2572"
    INDEX 01 03:43:43
  TRACK 195 AUDIO
    TITLE "0:"
    INDEX 01 03:44:74
  TRACK 196 AUDIO
    TITLE "19:cjc024_2573"
    INDEX 01 03:45:22
  TRACK 197 AUDIO
    TITLE "0:"
    INDEX 01 03:47:33
  TRACK 198 AUDIO
    TITLE "18:cjc024_2574"
    INDEX 01 03:48:36
  TRACK 199 AUDIO
    TITLE "0:"
    INDEX 01 03:49:56
  TRACK 200 AUDIO
    TITLE "19:cjc024_2575"
    INDEX 01 03:50:02
  TRACK 201 AUDIO
    TITLE "0:"
    INDEX 01 03:51:58
  TRACK 202 AUDIO
    TITLE "18:cjc024_2576"
    INDEX 01 03:52:58
  TRACK 203 AUDIO
    TITLE "0:"
    INDEX 01 03:53:67
  TRACK 204 AUDIO
    TITLE "19:cjc024_2577"
    INDEX 01 03:54:18
  TRACK 205 AUDIO
    TITLE "0:"
    INDEX 01 03:57:02
  TRACK 206 AUDIO
    TITLE "18:cjc024_2578"
    INDEX 01 03:58:06
  TRACK 207 AUDIO
    TITLE "0:"
    INDEX 01 03:59:36
  TRACK 208 AUDIO
    TITLE "19:cjc024_2579"
    INDEX 01 03:59:60
  TRACK 209 AUDIO
    TITLE "0:"
    INDEX 01 04:01:65
  TRACK 210 AUDIO
    TITLE "18:cjc024_2580"
    INDEX 01 04:02:66
  TRACK 211 AUDIO
    TITLE "0:"
    INDEX 01 04:04:04
  TRACK 212 AUDIO
    TITLE "19:cjc024_2581"
    INDEX 01 04:04:30
  TRACK 213 AUDIO
    TITLE "0:"
    INDEX 01 04:06:58
  TRACK 214 AUDIO
    TITLE "18:cjc024_2582"
    INDEX 01 04:07:57
  TRACK 215 AUDIO
    TITLE "0:"
    INDEX 01 04:09:07
  TRACK 216 AUDIO
    TITLE "19:cjc024_2583"
    INDEX 01 04:09:33
  TRACK 217 AUDIO
    TITLE "0:"
    INDEX 01 04:12:04
  TRACK 218 AUDIO
    TITLE "18:cjc024_2584"
    INDEX 01 04:13:03
  TRACK 219 AUDIO
    TITLE "0:"
    INDEX 01 04:14:20
  TRACK 220 AUDIO
    TITLE "19:cjc024_2585"
    INDEX 01 04:14:46
  TRACK 221 AUDIO
    TITLE "0:"
    INDEX 01 04:16:54
  TRACK 222 AUDIO
    TITLE "18:cjc024_2586"
    INDEX 01 04:17:56
  TRACK 223 AUDIO
    TITLE "0:"
    INDEX 01 04:19:15
  TRACK 224 AUDIO
    TITLE "19:cjc024_2587"
    INDEX 01 04:19:41
  TRACK 225 AUDIO
    TITLE "0:"
    INDEX 01 04:22:00
  TRACK 226 AUDIO
    TITLE "18:cjc024_2588"
    INDEX 01 04:23:02
  TRACK 227 AUDIO
    TITLE "0:"
    INDEX 01 04:24:15
  TRACK 228 AUDIO
    TITLE "19:cjc024_2589"
    INDEX 01 04:24:36
  TRACK 229 AUDIO
    TITLE "0:"
    INDEX 01 04:26:51
  TRACK 230 AUDIO
    TITLE "18:cjc024_2590"
    INDEX 01 04:27:50
  TRACK 231 AUDIO
    TITLE "0:"
    INDEX 01 04:28:48
  TRACK 232 AUDIO
    TITLE "19:cjc024_2591"
    INDEX 01 04:28:73
  TRACK 233 AUDIO
    TITLE "0:"
    INDEX 01 04:30:74
  TRACK 234 AUDIO
    TITLE "18:cjc024_2592"
    INDEX 01 04:32:00
  TRACK 235 AUDIO
    TITLE "0:"
    INDEX 01 04:33:08
  TRACK 236 AUDIO
    TITLE "19:cjc024_2593"
    INDEX 01 04:33:33
  TRACK 237 AUDIO
    TITLE "0:"
    INDEX 01 04:35:09
  TRACK 238 AUDIO
    TITLE "18:cjc024_2594"
    INDEX 01 04:36:10
  TRACK 239 AUDIO
    TITLE "0:"
    INDEX 01 04:37:25
  TRACK 240 AUDIO
    TITLE "19:cjc024_2595"
    INDEX 01 04:37:51
  TRACK 241 AUDIO
    TITLE "0:"
    INDEX 01 04:39:67
  TRACK 242 AUDIO
    TITLE "18:cjc024_2596"
    INDEX 01 04:40:72
  TRACK 243 AUDIO
    TITLE "0:"
    INDEX 01 04:42:22
  TRACK 244 AUDIO
    TITLE "19:cjc024_2597"
    INDEX 01 04:42:48
  TRACK 245 AUDIO
    TITLE "0:"
    INDEX 01 04:44:47
  TRACK 246 AUDIO
    TITLE "18:cjc024_2598"
    INDEX 01 04:45:48
  TRACK 247 AUDIO
    TITLE "0:"
    INDEX 01 04:46:48
  TRACK 248 AUDIO
    TITLE "19:cjc024_2599"
    INDEX 01 04:46:73
  TRACK 249 AUDIO
    TITLE "0:"
    INDEX 01 04:48:27
  TRACK 250 AUDIO
    TITLE "18:cjc024_2600"
    INDEX 01 04:49:28
  TRACK 251 AUDIO
    TITLE "0:"
    INDEX 01 04:50:26
  TRACK 252 AUDIO
    TITLE "19:cjc024_2601"
    INDEX 01 04:50:53
  TRACK 253 AUDIO
    TITLE "0:"
    INDEX 01 04:52:25
  TRACK 254 AUDIO
    TITLE "18:cjc024_2602"
    INDEX 01 04:53:28
  TRACK 255 AUDIO
    TITLE "0:"
    INDEX 01 04:54:43
  TRACK 256 AUDIO
    TITLE "19:cjc024_2603"
    INDEX 01 04:54:71
  TRACK 257 AUDIO
    TITLE "0:"
    INDEX 01 04:57:28
  TRACK 258 AUDIO
    TITLE "18:cjc024_2604"
    INDEX 01 04:58:27
  TRACK 259 AUDIO
    TITLE "0:"
    INDEX 01 04:59:50
  TRACK 260 AUDIO
    TITLE "19:cjc024_2605"
    INDEX 01 04:59:72
  TRACK 261 AUDIO
    TITLE "0:"
    INDEX 01 05:01:59
  TRACK 262 AUDIO
    TITLE "18:cjc024_2606"
    INDEX 01 05:02:72
  TRACK 263 AUDIO
    TITLE "0:"
    INDEX 01 05:04:12
  TRACK 264 AUDIO
    TITLE "19:cjc024_2607"
    INDEX 01 05:04:40
  TRACK 265 AUDIO
    TITLE "0:"
    INDEX 01 05:06:66
  TRACK 266 AUDIO
    TITLE "18:cjc024_2608"
    INDEX 01 05:07:65
  TRACK 267 AUDIO
    TITLE "0:"
    INDEX 01 05:09:17
  TRACK 268 AUDIO
    TITLE "19:cjc024_2609"
    INDEX 01 05:09:37
  TRACK 269 AUDIO
    TITLE "0:"
    INDEX 01 05:11:63
  TRACK 270 AUDIO
    TITLE "18:cjc024_2610"
    INDEX 01 05:12:71
  TRACK 271 AUDIO
    TITLE "0:"
    INDEX 01 05:13:74
  TRACK 272 AUDIO
    TITLE "19:cjc024_2611"
    INDEX 01 05:14:22
  TRACK 273 AUDIO
    TITLE "0:"
    INDEX 01 05:16:21
  TRACK 274 AUDIO
    TITLE "18:cjc024_2612"
    INDEX 01 05:17:23
  TRACK 275 AUDIO
    TITLE "0:"
    INDEX 01 05:18:24
  TRACK 276 AUDIO
    TITLE "19:cjc024_2613"
    INDEX 01 05:18:48
  TRACK 277 AUDIO
    TITLE "0:"
    INDEX 01 05:20:68
  TRACK 278 AUDIO
    TITLE "18:cjc024_2614"
    INDEX 01 05:21:71
  TRACK 279 AUDIO
    TITLE "0:"
    INDEX 01 05:23:02
  TRACK 280 AUDIO
    TITLE "19:cjc024_2615"
    INDEX 01 05:23:23
  TRACK 281 AUDIO
    TITLE "0:"
    INDEX 01 05:25:26
  TRACK 282 AUDIO
    TITLE "18:cjc024_2616"
    INDEX 01 05:26:26
  TRACK 283 AUDIO
    TITLE "0:"
    INDEX 01 05:27:35
  TRACK 284 AUDIO
    TITLE "19:cjc024_2617"
    INDEX 01 05:27:60
  TRACK 285 AUDIO
    TITLE "0:"
    INDEX 01 05:30:02
  TRACK 286 AUDIO
    TITLE "18:cjc024_2618"
    INDEX 01 05:31:03
  TRACK 287 AUDIO
    TITLE "0:"
    INDEX 01 05:32:16
  TRACK 288 AUDIO
    TITLE "19:cjc024_2619"
    INDEX 01 05:32:42
  TRACK 289 AUDIO
    TITLE "0:"
    INDEX 01 05:34:13
  TRACK 290 AUDIO
    TITLE "18:cjc024_2620"
    INDEX 01 05:35:27
  TRACK 291 AUDIO
    TITLE "0:"
    INDEX 01 05:36:22
  TRACK 292 AUDIO
    TITLE "19:cjc024_2621"
    INDEX 01 05:36:48
  TRACK 293 AUDIO
    TITLE "0:"
    INDEX 01 05:38:52
  TRACK 294 AUDIO
    TITLE "18:cjc024_2622"
    INDEX 01 05:39:54
  TRACK 295 AUDIO
    TITLE "0:"
    INDEX 01 05:40:57
  TRACK 296 AUDIO
    TITLE "19:cjc024_2623"
    INDEX 01 05:41:09
  TRACK 297 AUDIO
    TITLE "0:"
    INDEX 01 05:43:53
  TRACK 298 AUDIO
    TITLE "18:cjc024_2624"
    INDEX 01 05:44:53
  TRACK 299 AUDIO
    TITLE "0:"
    INDEX 01 05:45:62
  TRACK 300 AUDIO
    TITLE "19:cjc024_2625"
    INDEX 01 05:46:20
  TRACK 301 AUDIO
    TITLE "0:"
    INDEX 01 05:49:09
  TRACK 302 AUDIO
    TITLE "18:cjc024_2626"
    INDEX 01 05:50:08
  TRACK 303 AUDIO
    TITLE "0:"
    INDEX 01 05:51:24
  TRACK 304 AUDIO
    TITLE "19:cjc024_2627"
    INDEX 01 05:51:51
  TRACK 305 AUDIO
    TITLE "0:"
    INDEX 01 05:54:38
  TRACK 306 AUDIO
    TITLE "18:cjc024_2628"
    INDEX 01 05:55:35
  TRACK 307 AUDIO
    TITLE "0:"
    INDEX 01 05:56:48
  TRACK 308 AUDIO
    TITLE "19:cjc024_2629"
    INDEX 01 05:56:74
  TRACK 309 AUDIO
    TITLE "0:"
    INDEX 01 05:58:63
  TRACK 310 AUDIO
    TITLE "18:cjc024_2630"
    INDEX 01 05:59:64
  TRACK 311 AUDIO
    TITLE "0:"
    INDEX 01 06:00:66
  TRACK 312 AUDIO
    TITLE "19:cjc024_2631"
    INDEX 01 06:01:18
  TRACK 313 AUDIO
    TITLE "0:"
    INDEX 01 06:03:11
  TRACK 314 AUDIO
    TITLE "18:cjc024_2632"
    INDEX 01 06:04:12
  TRACK 315 AUDIO
    TITLE "0:"
    INDEX 01 06:05:33
  TRACK 316 AUDIO
    TITLE "19:cjc024_2633"
    INDEX 01 06:05:57
  TRACK 317 AUDIO
    TITLE "0:"
    INDEX 01 06:07:70
  TRACK 318 AUDIO
    TITLE "18:cjc024_2634"
    INDEX 01 06:08:73
  TRACK 319 AUDIO
    TITLE "0:"
    INDEX 01 06:10:03
  TRACK 320 AUDIO
    TITLE "19:cjc024_2635"
    INDEX 01 06:10:35
  TRACK 321 AUDIO
    TITLE "0:"
    INDEX 01 06:12:10
  TRACK 322 AUDIO
    TITLE "18:cjc024_2636"
    INDEX 01 06:13:17
  TRACK 323 AUDIO
    TITLE "0:"
    INDEX 01 06:14:38
  TRACK 324 AUDIO
    TITLE "19:cjc024_2637"
    INDEX 01 06:14:68
  TRACK 325 AUDIO
    TITLE "0:"
    INDEX 01 06:17:23
  TRACK 326 AUDIO
    TITLE "18:cjc024_2638"
    INDEX 01 06:18:38
  TRACK 327 AUDIO
    TITLE "0:"
    INDEX 01 06:19:55
  TRACK 328 AUDIO
    TITLE "19:cjc024_2639"
    INDEX 01 06:20:12
  TRACK 329 AUDIO
    TITLE "0:"
    INDEX 01 06:22:26
  TRACK 330 AUDIO
    TITLE "18:cjc024_2640"
    INDEX 01 06:23:29
  TRACK 331 AUDIO
    TITLE "0:"
    INDEX 01 06:24:43
  TRACK 332 AUDIO
    TITLE "19:cjc024_2641"
    INDEX 01 06:24:68
  TRACK 333 AUDIO
    TITLE "0:"
    INDEX 01 06:28:11
  TRACK 334 AUDIO
    TITLE "18:cjc024_2642"
    INDEX 01 06:29:10
  TRACK 335 AUDIO
    TITLE "0:"
    INDEX 01 06:30:41
  TRACK 336 AUDIO
    TITLE "19:cjc024_2643"
    INDEX 01 06:30:65
  TRACK 337 AUDIO
    TITLE "0:"
    INDEX 01 06:33:40
  TRACK 338 AUDIO
    TITLE "18:cjc024_2644"
    INDEX 01 06:34:41
  TRACK 339 AUDIO
    TITLE "0:"
    INDEX 01 06:35:56
  TRACK 340 AUDIO
    TITLE "19:cjc024_2645"
    INDEX 01 06:36:09
  TRACK 341 AUDIO
    TITLE "0:"
    INDEX 01 06:37:69
  TRACK 342 AUDIO
    TITLE "18:cjc024_2646"
    INDEX 01 06:38:68
  TRACK 343 AUDIO
    TITLE "0:"
    INDEX 01 06:40:08
  TRACK 344 AUDIO
    TITLE "19:cjc024_2647"
    INDEX 01 06:40:36
  TRACK 345 AUDIO
    TITLE "0:"
    INDEX 01 06:42:29
  TRACK 346 AUDIO
    TITLE "18:cjc024_2648"
    INDEX 01 06:43:30
  TRACK 347 AUDIO
    TITLE "0:"
    INDEX 01 06:44:37
  TRACK 348 AUDIO
    TITLE "19:cjc024_2649"
    INDEX 01 06:44:59
  TRACK 349 AUDIO
    TITLE "0:"
    INDEX 01 06:47:06
  TRACK 350 AUDIO
    TITLE "18:cjc024_2650"
    INDEX 01 06:48:06
  TRACK 351 AUDIO
    TITLE "0:"
    INDEX 01 06:49:23
  TRACK 352 AUDIO
    TITLE "19:cjc024_2651"
    INDEX 01 06:49:48
  TRACK 353 AUDIO
    TITLE "0:"
    INDEX 01 06:53:17
  TRACK 354 AUDIO
    TITLE "18:cjc024_2652"
    INDEX 01 06:54:14
  TRACK 355 AUDIO
    TITLE "0:"
    INDEX 01 06:55:20
  TRACK 356 AUDIO
    TITLE "19:cjc024_2653"
    INDEX 01 06:55:45
  TRACK 357 AUDIO
    TITLE "0:"
    INDEX 01 06:57:21
  TRACK 358 AUDIO
    TITLE "18:cjc024_2654"
    INDEX 01 06:58:28
  TRACK 359 AUDIO
    TITLE "0:"
    INDEX 01 06:59:27
  TRACK 360 AUDIO
    TITLE "19:cjc024_2655"
    INDEX 01 06:59:51
  TRACK 361 AUDIO
    TITLE "0:"
    INDEX 01 07:01:52
  TRACK 362 AUDIO
    TITLE "18:cjc024_2656"
    INDEX 01 07:02:51
  TRACK 363 AUDIO
    TITLE "0:"
    INDEX 01 07:03:52
  TRACK 364 AUDIO
    TITLE "19:cjc024_2657"
    INDEX 01 07:04:03
  TRACK 365 AUDIO
    TITLE "0:"
    INDEX 01 07:05:59
  TRACK 366 AUDIO
    TITLE "18:cjc024_2658"
    INDEX 01 07:06:59
  TRACK 367 AUDIO
    TITLE "0:"
    INDEX 01 07:07:72
  TRACK 368 AUDIO
    TITLE "19:cjc024_2659"
    INDEX 01 07:08:22
  TRACK 369 AUDIO
    TITLE "0:"
    INDEX 01 07:10:53
  TRACK 370 AUDIO
    TITLE "18:cjc024_2660"
    INDEX 01 07:11:54
  TRACK 371 AUDIO
    TITLE "0:"
    INDEX 01 07:12:57
  TRACK 372 AUDIO
    TITLE "19:cjc024_2661"
    INDEX 01 07:13:10
  TRACK 373 AUDIO
    TITLE "0:"
    INDEX 01 07:14:68
  TRACK 374 AUDIO
    TITLE "18:cjc024_2662"
    INDEX 01 07:15:73
  TRACK 375 AUDIO
    TITLE "0:"
    INDEX 01 07:17:09
  TRACK 376 AUDIO
    TITLE "19:cjc024_2663"
    INDEX 01 07:17:35
  TRACK 377 AUDIO
    TITLE "0:"
    INDEX 01 07:19:10
  TRACK 378 AUDIO
    TITLE "18:cjc024_2664"
    INDEX 01 07:20:12
  TRACK 379 AUDIO
    TITLE "0:"
    INDEX 01 07:21:17
  TRACK 380 AUDIO
    TITLE "19:cjc024_2665"
    INDEX 01 07:21:45
  TRACK 381 AUDIO
    TITLE "0:"
    INDEX 01 07:23:61
  TRACK 382 AUDIO
    TITLE "18:cjc024_2666"
    INDEX 01 07:24:60
  TRACK 383 AUDIO
    TITLE "0:"
    INDEX 01 07:25:68
  TRACK 384 AUDIO
    TITLE "19:cjc024_2667"
    INDEX 01 07:26:18
  TRACK 385 AUDIO
    TITLE "0:"
    INDEX 01 07:28:23
  TRACK 386 AUDIO
    TITLE "18:cjc024_2668"
    INDEX 01 07:29:22
  TRACK 387 AUDIO
    TITLE "0:"
    INDEX 01 07:30:26
  TRACK 388 AUDIO
    TITLE "19:cjc024_2669"
    INDEX 01 07:30:53
  TRACK 389 AUDIO
    TITLE "0:"
    INDEX 01 07:32:38
  TRACK 390 AUDIO
    TITLE "18:cjc024_2670"
    INDEX 01 07:33:38
  TRACK 391 AUDIO
    TITLE "0:"
    INDEX 01 07:34:71
  TRACK 392 AUDIO
    TITLE "19:cjc024_2671"
    INDEX 01 07:35:21
  TRACK 393 AUDIO
    TITLE "0:"
    INDEX 01 07:36:66
  TRACK 394 AUDIO
    TITLE "18:cjc024_2672"
    INDEX 01 07:37:67
  TRACK 395 AUDIO
    TITLE "0:"
    INDEX 01 07:39:11
  TRACK 396 AUDIO
    TITLE "19:cjc024_2673"
    INDEX 01 07:39:39
  TRACK 397 AUDIO
    TITLE "0:"
    INDEX 01 07:41:53
  TRACK 398 AUDIO
    TITLE "18:cjc024_2674"
    INDEX 01 07:42:53
  TRACK 399 AUDIO
    TITLE "0:"
    INDEX 01 07:44:06
  TRACK 400 AUDIO
    TITLE "19:cjc024_2675"
    INDEX 01 07:44:30
  TRACK 401 AUDIO
    TITLE "0:"
    INDEX 01 07:47:22
